<svg version="1" xmlns="http://www.w3.org/2000/svg" width="181.333" height="181.333" viewBox="0 0 136 136"><path d="M13.5 5.9C8.4 8.2 4.2 12.4 1.9 17.5.2 21.2 0 25 0 68.5c0 52 0 51.3 6.6 57.9 6.7 6.7 5.5 6.6 61.4 6.6s54.7.1 61.4-6.6c6.6-6.6 6.6-5.9 6.6-57.9s0-51.3-6.6-57.9C122.7 3.9 123.9 4 68 4c-46.9 0-50.8.2-54.5 1.9zm70.8 28.9c13.4 6.6 21 18.8 21 33.7 0 15-7.5 27-21.1 33.7-6.1 3-7.4 3.3-16.2 3.3-8.8 0-10.1-.3-16.2-3.3-13.6-6.7-21.1-18.7-21.1-33.7 0-10.1 2.7-17.5 9-24.5 8.4-9.3 17.4-13.1 30-12.7 6.7.3 9.2.9 14.6 3.5z"/><path d="M58.3 35.4c-15.4 5-24.6 17.4-24.6 33.1 0 13.7 6.8 24.7 19.1 30.7 5.9 3 7.6 3.3 15.2 3.3s9.3-.3 15.2-3.3c25.6-12.6 25.7-48.8.2-61.3-7.6-3.8-18.1-4.8-25.1-2.5zM75 53.7c-2.8 6.5-5.4 12.4-5.7 13-.4 1 1.5 1.3 7.7 1.3s8.1.3 7.8 1.3c-.2.7-6.8 7.3-14.7 14.6-10 9.2-14.7 12.9-15.4 12.2-.7-.7.5-4.6 4.1-12.8l5.1-11.8-6.2-.5c-4-.3-6.2-.9-6.2-1.8 0-2.2 26.7-29.4 27.8-28.3.7.7-.7 4.9-4.3 12.8z"/><path d="M64.1 59.1L55.8 68h9.8l3.7-8.7c2-4.8 3.6-8.7 3.4-8.8-.1-.1-4 3.8-8.6 8.6zm-.4 20.5c-2.1 4.8-3.6 8.8-3.5 8.9.2.2 4.6-3.7 9.8-8.6l9.5-8.9H67.4l-3.7 8.6z"/></svg>